<?xml version="1.0" encoding="utf-8"?>
<!-- Generator: Adobe Illustrator 18.0.0, SVG Export Plug-In . SVG Version: 6.00 Build 0)  -->
<!DOCTYPE svg PUBLIC "-//W3C//DTD SVG 1.1//EN" "http://www.w3.org/Graphics/SVG/1.1/DTD/svg11.dtd">
<svg version="1.1" id="Layer_1" xmlns="http://www.w3.org/2000/svg" xmlns:xlink="http://www.w3.org/1999/xlink" x="0px" y="0px"
	 viewBox="-46.1353 -51 2774.2708 974" enable-background="new -46.1353 -51 2774.2708 974" xml:space="preserve">
<g>
	<path d="M975.79,0h1.3c-0.14,18.68-4.84,37.09-11.72,54.37c-2.36,5.88-5.31,11.66-9.92,16.11c-15.6,15.69-35.39,26.26-55.15,35.74
		c-18.49,35.62-29.59,75.51-28.91,115.81c0.41,42.99,13.88,84.94,33.92,122.67c25.18,47.03,59.26,88.61,95.67,127.33
		c13.88,14.57,30.38,26.48,48.1901,35.78c35.12,18.43,74.1899,27.66,109.46,45.73c31.55,16.76,61.52,36.34,90.37,57.35
		c31.0601,22.72,60.9,47.09,89.4399,72.9c1.3301,0.95,3,3.2401,4.4301,1.09c56.4401-50.91,116.4301-99.02,184.46-133.63
		c36.5801-18.57,75.3501-33.08,115.52-41.61c2.41-0.49,4.8101-1.39,6.4601-3.32c13.33-13.98,26.7599-27.88,40.1399-41.82
		c9.25-9.33,17.87-19.27,27.3301-28.38c-20.9501,24.77-43.54,48.11-65.8401,71.66c29.5701-6.12,60.05-8.39,90.13-5.27
		c2.8401,0.23,6.01,0.9,8.55-0.86c53.4-32.35,110.48-58.33,162.6-92.82c-51.03,35.59-104.7899,67.31-160.76,94.51
		c42.5,7.92,83.64,21.46,124.9301,33.99c39.64,12.03,79.53,23.96,120.63,29.88c25.48,3.63,51.45,4.93,77.05,1.71
		c21.5898-2.69,42.8398-8.71,62.3198-18.48c7.8401-3.63,14.99-8.55,22.5-12.79c-18.0298,13.17-38.51,22.52-59.1499,30.8199
		c41.71-5.3199,83.95-1.2,125.1399,6.2c16.4602,2.89,32.75,6.66,49.1201,10.03c1.3201-1.25,2.6699-2.49,4.03-3.73
		c1.74,2.51,3.1699,5.95,6.6699,6.28c31.9102,7.28,63.6799,15.15,95.8,21.49c30.1299,5.75,60.8101,10.1,91.5601,8.68
		c25.22-1.18,50.6799-6.92,72.5601-19.89c12.96-7.13,23.95-17.23,34-27.97c-12.1401,14.99-27.52,27.18-44.04,37.03
		c-26.6401,15.48-58.4502,18.3199-88.6401,16.79c-31.95-1.68-63.3899-8.04-94.5999-14.69c-21.8501-4.83-43.6602-9.76-65.47-14.74
		c8.4199,16.79,15.1799,34.45,19.74,52.68c1.5898,6.64,3.6099,13.39,2.72,20.3c-2.0601,21.96-9.78,43.06-19.8301,62.57
		c-3.51,6.02-5.97,13.12-11.99,17.18c0.51-7.55,3.1001-15.09,1.5701-22.67c-2.8501-16.8-9.97-32.4-15.8401-48.27
		c-6.23-16.45-12.0701-34.01-9.3201-51.83c1.6902-12.65,8.3101-23.92,16.0701-33.8c-38.5901-8.17-77.5-15.65-116.96-17.88
		c-25.3801-1.38-50.98-0.75-76.0601,3.59c-12.04,1.66-24.02,4.59-36.23,4.42c7.1801,1.45,11.95,7.3,17.46,11.6
		c11.03,8.67,23.9102,14.47,36.3901,20.7c3.24,1.21,3.0698,4.89,3.0798,7.7401c2.6401,2.92,5.3301,5.8,7.9302,8.77
		c-0.3201,1.91-1.2102,3.86-0.75,5.82c1.6299,3.2,4.6399,5.64,5.6099,9.2c-0.01,2.95-1.3101,5.73-1.3398,8.68
		c0.4299,2.81,2.0398,5.43,1.9099,8.33c-0.74,1.9-2.04,3.52-3.1301,5.21c1.23,4.63,4.4302,9.61,1.78,14.34
		c-2.8799,4.23,1.77,8.76,0.1201,13.2c-0.6602,2.1-1.6101,4.09-2.47,6.12c1.3298,3.24,2.49,6.55,3.3999,9.95
		c-0.8301,1.41-1.6199,2.84-2.3699,4.28c2.2898,2.24,4.5298,4.54,6.47,7.12c-1.4102,3.1-3.02,6.25-3.1101,9.73
		c-0.1199,4.3199,0.5601,8.62,0.47,12.96c-3.45-0.66-7.5601-1.44-9.49-4.7c-1.05-3.25,0.24-6.71,0.6301-9.97
		c-4.4402-0.65-8.9502-1.17-13.0801-2.97c-0.27-2.23-0.3301-4.48-0.96-6.63c-5.3101-1.18-10.78-0.3199-16.1401-0.27
		c-0.1599-1.46-0.2998-2.92-0.4199-4.37c-4.28-0.8-8.8699-0.73-12.8201-2.7c-0.71-1.8-0.47-3.94-1.49-5.57
		c-3.3999-2.79-8.1399-2.78-11.8199-5.02c-0.34-2.13-0.16-4.31-0.6-6.41c-6.1801-5.79-14.28-9.12-20.28-15.17
		c-6.61-5.9-9.24-14.89-10.0599-23.43c-1.0901-12.76-0.28-25.63,1.62-38.28c1.85-10.22,3.87-20.77,9.51-29.69
		c2-3.39,5.11-5.92,8.5-7.86c-24.17,1.32-48.4701-0.74-72.1901-5.51c-38.01-7.18-73.4299-23.53-110.73-33.28
		c13.46,10.56,26.49,21.81,37.65,34.85c26.1,29.76,44.9,66.12,52.91,104.96c4.6599,23.04,5.4299,47.04,0.7799,70.16
		c-3.58,18.05-10.5399,35.49-20.86,50.75c-10.15,15.21-23.58,28.12-38.83,38.15c-16.8,11.06-35.6801,18.7599-55.15,23.67
		c-14.23,3.83-28.88,5.64-43.48,7.3h-14.84c-29.9301-0.95-60.3601-8.17-85.4301-25.08c-25.46-16.8-43.91-43.19-52.54-72.31
		c-11.9099-39.58-7.7999-82.71,6.4401-121.12c-6.7001,25.59-11.0801,52.01-9.9,78.54c1.16,30.45,9.73,61.61,29.3,85.5
		c11.39,14.02,26.35,25.0099,42.9299,32.1c20.3101,8.78,42.62,12.04,64.64,11.97c37.02,0.35,73.78-11.5099,104.25-32.4
		c27.15-18.28,48.6901-44.78,60.78-75.21c8.61-21.77,11.26-45.84,7.5-68.95c-5.4-34.44-23.35-65.66-45.6901-91.93
		c-24.1899-28.66-55.2799-51.77-90.59-64.74c12.02,18.3,21.96,37.92,30.23,58.18c7.0801,18.36,13.91,37.54,13.36,57.49
		c-1.59,19.76-7.5399,38.89-14.47,57.36c-6.47,16.67-13.33,33.67-24.5499,47.7599c-1.8701-4.98,0.08-10.24,0.5099-15.29
		c2.3601-16.42-4-32.3-10.0499-47.21c-8.4401-20.47-17.7001-40.7-23.75-62.05c-4.78-17.3-6.17-36.07-0.46-53.32
		c5.49-16.52,15.58-31.38,28.35-43.15c-22.54-8.19-46.5-12.04-70.42-12.69c-44.48-1.02-88.48,9.26-130,24.58
		c-37.89,14.08-74.03,32.52-108.62,53.35c-34.39,20.88-67.4301,44-98.73,69.28c-13.89,10.65-26.9401,22.34-40.3101,33.63
		c25.9801,23.2,53.78,44.34,78.7101,68.71c12.02,12.12,24.1599,24.67,31.72,40.19c-13.21-2.25-24.23-10.51-34.71-18.33
		c-31.12-24.47-57.9-53.79-86.7201-80.81c-20.8999,19.5-40.5599,40.3-61.74,59.51c-12.9299,11.52-25.87,23.23-40.76,32.2
		c-5.83,3.53-12.1699,6.31-18.9299,7.44c7.33-15.21,19.16-27.52,30.91-39.37c25.21-24.63,53.34-45.97,79.49-69.55
		c-62.8601-55.28-131.9-104.55-208.42-139.1c-41.22-18.32-84.8-32.26-129.81-36.89c-35.9-3.68-72.81-1.06-107.09,10.69
		c10.4,11.11,19.86,23.59,24.69,38.2c5.95,16.58,5.8,34.84,1.57,51.81c-5.26,21.26-14.88,41.06-23.03,61.3
		c-5.43,13.08-11.15,26.42-12.3,40.69c-0.6299,7.75,1.41,15.33,1.94,23.01c0.3,1.75-2.29,3.36-2.96,1.08
		c-14.04-20.54-22.79-44.16-30.06-67.8c-4.3-15.63-8.71-31.89-6.42-48.22c2.14-16.51,7.86-32.26,14.04-47.63
		c7.36-17.35,15.75-34.32,25.91-50.2c-34.92,13.15-66.08,35.45-90.77,63.32c-21.38,23.95-37.63,53.28-42.77,85.21
		c-3.48,21.04-1.78,42.85,4.67,63.17c7.81,24.12,21.66,46.14,39.3,64.28c28.9901,28.52,67.9,46.27,108.08,51.49
		c39.37,4.9,80.81-5.14,112.44-29.38c26.45-19.95,45.58-50.18,49.72-83.3c2.88-20.26-1.13-40.56-4.8-60.43
		c2.14,9.36,4.51,18.69,5.98,28.19c3.3,20.73,3.6001,42.22-1.63,62.67c-4.3099,17.15-12.7799,33.3-24.85,46.27
		c-12.35,13.42-28.13,23.38-45.02,30.06c-32.83,12.87-69.19,14.57-103.8,9.33c-39.14-6.14-77.46-21.35-108.05-46.87
		c-22.23-18.49-39.74-43.45-46.42-71.82c-5.81-23.89-3.75-49.19,3.55-72.5099c8.22-26.5,22.43-50.75,38.93-72.91
		c17.53-23.64,38.94-44.39,63.31-60.93c-40.48,13.32-81.97,24.5-124.47,28.73c3.41-0.61,6.83-1.15,10.23-1.81
		c39.75-8.49,78.04-22.39,116.35-35.7c30.43-10.65,61.12-20.94,92.86-26.94c-22.97-11.2-45.62-23.05-67.8-35.73
		c-29.56-17.03-58.71-34.88-86.62-54.51c21.52,13.53,43.5099,26.31,65.91,38.34c29.62,16.25,59.78,31.57,88.61,49.22
		c1.76,0.93,3.52,2.34,5.65,2.16c31.26-2.79,63.26-3.58,94.0099,3.71c-26.2499-25.61-53.05-50.66-78.47-77.11
		c-24.97-26.27-48.38-54.59-64.89-87.04c-19.47-37.83-28.23-81.12-24.7599-123.54c3.14-40.17,16.96-79.09,37.72-113.48
		c-2.72-14.78-1.56-30.98,6.97-43.76c9.31-14.6,25.16-22.69,39.27-31.83c7.06-4.83,14.66-9.14,20.53-15.48
		C971.17,10.19,973.06,4.81,975.79,0 M2034.89,588.68c-0.88,7.33,0.4399,14.72,2.48,21.75c6.25,20.75,16.6,39.97,27.84,58.4
		c8.1699,13.99,17.7,27.11,26.8301,40.48c-2.45-4.56-5.3301-8.86-7.95-13.31c-9.8201-15.92-18.4502-32.53-27.3101-48.99
		c-7.3-13.99-15.3-27.81-19.6-43.1C2035.65,598.95,2036.13,593.68,2034.89,588.68z"/>
	<path d="M1705.54,0h1.33c3.34,6.41,6.34,13.34,12.1901,17.94c10.3199,8.32,21.9199,14.84,32.98,22.1
		c10.5499,6.81,20.5699,15.36,26.0699,26.9c5.6901,11.44,6.24,24.72,4.1801,37.14c13.02,19.46,24.24,40.34,31.14,62.79
		c7.9199,24.81,10.4099,51.3,7.4199,77.16c-4.38,37.69-19.5699,73.33-39.1799,105.52c6.0599-14.07,11.8099-28.31,15.87-43.11
		c6.96-24.55,10.87-49.96,11.6-75.46c1.11-40.26-5.4401-81.37-23.34-117.72c-1.7301-3.41-3.25-7.47-7.15-8.9
		c-15.4501-7.16-30.53-15.45-43.63-26.42c-6.29-5.44-12.5-11.42-15.8101-19.2C1710.99,40.28,1705.84,20.26,1705.54,0z"/>
	<path d="M810.1,14.37c8.94,2.1,16.82,7.05,24.47,11.93c11.98,8.06,23.85,17.12,31.59,29.54c6.9901,10.87,10.01,23.66,12.21,36.24
		c1.74,10.5,3.22,21.11,3.31,31.77c-7.38-1.55-14.91-3.15-21.5-6.98c-9.78-5.66-17.74-14.47-22.28-24.82
		c-8.72-20.15-7.75-43.04-16.89-63.04C818.48,23.37,813.84,19.16,810.1,14.37z"/>
	<path d="M1848.2,26.22c7.6001-4.86,15.4701-9.74,24.3501-11.85c-3.3401,4.39-7.8401,7.93-10.2101,13
		c-3.01,6.21-4.34,13.03-5.9399,19.69c-3.8101,15.2-4.8301,31.27-11.67,45.58c-5.03,10.95-13.84,20.14-24.8099,25.22
		c-6,2.92-12.4701,4.71-18.99,5.98c0.1699-11.34,1.7799-22.61,3.72-33.77c2.1799-11.76,5.11-23.68,11.5699-33.89
		C1823.99,43.53,1836.08,34.42,1848.2,26.22z"/>
	<path d="M953.82,109.78c11.6-6.75,24.42-12.86,38.18-12.33c12.48,0.32,23.91,6.32,33.78,13.54c-10.96,9.12-22.27,17.91-34.75,24.87
		c-11.33,6.31-23.71,12.15-36.9901,11.73c-12.95-0.6-25.7599-3.04-38.28-6.37c-6.62-1.84-13.31-3.86-19.13-7.62
		c5.7-2.01,12.04,0.15,17.64-2.27C928.3,125.83,940.85,117.32,953.82,109.78z"/>
	<path d="M1656.87,110.99c10.21-7.51,22.1801-13.66,35.16-13.57c14.15-0.09,27.09,6.62,38.96,13.64
		c11.79,6.98,23.35,14.53,36.0701,19.75c5.9199,2.89,12.6599,1.21,18.95,2.31c-1.6901,1.79-3.83,3-6.1,3.84
		c-10.87,4.19-22.28,6.8-33.73,8.76c-11.26,1.75-23.1001,3.3-34.1001-0.58C1691.34,138.15,1673.52,124.84,1656.87,110.99z"/>
	<path d="M572.73,159.42c2.76,0.64,6.21,0.44,8.17,2.88c1.62,2.32,0.41,5.27,0.14,7.83c2.84,0.02,5.94-0.85,8.64,0.33
		c1.35,1.73,2.17,3.81,3.22,5.73c3.54-0.53,7.0699-1.17,10.63-1.59c0.2,0.85,0.62,2.55,0.8199,3.4c2.66-0.1,5.35-0.79,8.01-0.4
		c1.56,1.05,1.47,3.19,2.1,4.78c2.81,1.16,5.93,1.3,8.7599,2.41c1.3,1.37,1.1801,3.56,1.7401,5.32c6.35,3.05,12.9,6.01,18.21,10.76
		c7.33,8.59,8.95,20.31,9.28,31.21c0.2,10.93-0.17,22.35-5.04,32.36c-1.49,3.55-4.6,6.39-8.24,7.57
		c-5.61-0.03-10.02-4.06-14.73-6.54c-9.32-6.08-20.36-8.43-30.17-13.49c0.56-4.65-3.96-6.52-6.56-9.42
		c-0.69-1.63,0.33-3.68-0.87-5.14c-1.63-2.18-3.5-4.17-5.16-6.32c0.56-1.68,1.23-3.35,1.48-5.12c-0.67-2.37-2.06-4.43-3.18-6.59
		c0.96-1.41,1.98-2.8,2.67-4.38c-0.7401-3.27-3.76-6.25-2.32-9.74c1.21-3.23-0.25-6.42-1.45-9.4c0.52-1.36,1.05-2.73,1.6-4.08
		c-2.17-3.03-3.83-6.7-1.91-10.32c-1.71-1.69-3.45-3.35-5.16-5.03C575.68,170.89,574.77,164.87,572.73,159.42 M591.97,185.78
		c8.9,12.47,18.19,24.67,26.76,37.37c5.84,8.66,12.24,17.02,16.88,26.41c2.51,5.02,3.47,10.61,5.34,15.87
		c-0.5-6.63-2.77-12.97-5.43-19c-6.34-13.87-14.92-26.65-24.61-38.39C604.46,200.73,598.52,192.99,591.97,185.78z"/>
	<path d="M2102.02,161.94c2.0801-2.05,5.24-1.91,7.9199-2.55c-2.0601,5.45-2.97,11.44-0.71,16.99c-1.6099,1.53-3.21,3.06-4.78,4.6
		c1.2,3.77-0.1199,7.53-2.24,10.66c0.5,1.42,1.02,2.83,1.5601,4.25c-1.9399,3.77-2.52,8-0.74,11.95
		c-1.0701,2.34-2.3901,4.59-2.99,7.1c0.5,1.69,1.6699,3.06,2.6499,4.51c-1.1699,2.13-2.54,4.18-3.21,6.53
		c0.23,1.76,0.9199,3.42,1.5,5.11c-2.4399,3.55-7.25,6.38-5.7,11.36c-2.97,2.68-7.3301,4.86-6.8901,9.53
		c-8.6599,4.5-18.2898,6.79-26.8398,11.53c-5.8501,2.92-10.8701,7.87-17.62,8.59c-3.8-0.94-7.01-3.89-8.5801-7.43
		c-4.6899-9.46-5.27-20.27-5.21-30.65c0.29-9.56,0.98-19.6,5.87-28.08c4.2-8.47,13.8-11.76,21.6899-15.83
		c0.28-1.75,0.47-3.55,1.02-5.25c2.6201-0.97,5.49-1.1,8.1501-2.03c2.1199-0.37,1.5198-3.1,2.21-4.64
		c3.0798-0.46,6.22-0.58,9.3599-0.55c0.1802-0.77,0.53-2.3,0.7-3.07c3.27,0.37,6.51,1.24,9.8301,1.35
		c2.6301-0.04,2.4001-3.24,3.05-5.03c3.0601-0.99,6.3-1.07,9.52-0.99C2101.3,167.3,2100.03,164.16,2102.02,161.94 M2052.28,236.24
		c-4.76,8.87-9.5801,18.2-10.3301,28.4c1.03-2.87,1.7101-5.85,2.63-8.75c3.13-9.95,9.5499-18.35,15.2902-26.9
		c10.3398-15.32,21.3098-30.19,32.2698-45.07C2078.1299,200.78,2062.8101,216.84,2052.28,236.24z"/>
	<path d="M751.84,183.57c6.62-0.2,13.33-0.98,19.3-4.1c-0.46,3.45,0.19,7.61-2.31,10.4c-2.45,1.36-5.48,0.46-8.15,0.76
		c0.29,3.16,1.1,6.26,1.23,9.44c-1.81,1.92-4.14,3.25-5.97,5.16c0.95,3.68,2.32,7.22,3.84,10.7c-1.17,0.89-2.35,1.77-3.53,2.63
		c-0.23,3.38,0.44,6.71,1.41,9.94c-1.65,0.94-3.3199,1.82-4.99,2.67c-0.46,3.58-0.59,7.19-0.82,10.79
		c-1.8199,0.51-3.66,0.99-5.48,1.48c-2.47,7.8-4.56,15.9-9.19,22.77c-6.07,7.31-15.06,11.51-24.15,13.69
		c-13,3.39-26.5601,5.63-40,4.16c-6.61-0.87-14.29-3.61-16.78-10.42c0.52-6.56,3.32-12.67,5.63-18.75
		c4.57-11.03,5.54-23.07,9.19-34.37c1.56-0.55,3.4-0.63,4.72-1.72c1.29-1.86,1.7401-4.14,2.9-6.07c1.71-1.49,4.14-1.46,6.25-1.92
		c2.09-2.53,3.83-5.48,6.61-7.32c2.02-1.39,4.5-0.12,6.75-0.23c2.02-1.04,3.68-2.67,5.71-3.72c2.05-0.38,3.95,0.95,5.88,1.49
		c3.73-1.62,6.75-5.42,11.15-4.92c3.4901,0.27,6.62-1.4,9.7-2.79c2.03,0.14,4.13,0.69,6.17,0.21c2.35-0.98,4.16-2.94,6.52-3.93
		c1.49-0.22,3.02-0.21,4.53-0.46C749.58,187.54,750.61,185.47,751.84,183.57 M711.66,239.66c-10.8799,10.48-21.8,21.19-34.66,29.25
		c-4.24,2.77-9.02,4.51-13.38,7.03c18.66-6,34.25-18.77,48.01-32.35c10.48-10.96,20.61-22.29,30.09-34.12
		C731.76,219.59,721.88,229.79,711.66,239.66z"/>
	<path d="M1911.74,180.26c4.36,1.28,8.65,3.01,13.22,3.41c2.02,0.32,4.2001,0.21,6.13,1.07c1.5901,1.39,2.53,3.34,3.7001,5.09
		c1.39-0.21,2.8199-0.43,4.25-0.67c2.7899,1.78,5.52,3.67,8.4199,5.3c3.15-1.05,6.77-1.76,9.53,0.65c2.2,2.08,5.0601,1.59,7.75,0.95
		c2.63,1.75,5.28,3.5,8.08,5c1.6901-0.65,3.3501-1.42,5.1901-1.72c2.28,0.94,4.1,2.68,6.23,3.92c1.62,0.24,3.21-0.51,4.85-0.78
		c3.0801,1.24,5.1901,3.81,7.01,6.49c1.6,2.95,5.77,1.7,7.9401,3.9c1.14,1.94,1.5399,4.28,2.98,6.08c1.34,0.9,3.02,1.08,4.58,1.57
		c3.4301,10.67,4.7101,21.9,8.4301,32.49c2.1699,5.94,4.89,11.73,6.1,17.98c0.87,2.94-0.7,6.24-2.89,8.15
		c-8.87,4.82-19.29,5.72-29.2,5.24c-11.5901-0.73-23.0601-3.33-33.87-7.56c-7.14-3.21-14.3401-8.01-17.4701-15.5
		c-2.75-5.12-4.0499-10.79-5.9199-16.24c-0.8301-2.49-4.02-2.46-6.01-3.41c-0.28-3.5-0.36-7.02-0.77-10.51
		c-1.6899-0.91-3.85-1.32-4.89-3.05c0.21-2.81,1.1801-5.49,1.59-8.27c-0.9299-1.28-2.34-2.03-3.5599-2.94
		c1.4-4.01,2.45-8.14,3.3099-12.3c-2.0499-1.62-4.09-3.25-5.8899-5.12c0.6499-2.83,1.23-5.69,1.4299-8.59
		c-2.78-0.39-6.02,0.28-8.35-1.56C1911.48,186.88,1911.99,183.28,1911.74,180.26 M1942.37,211.25
		c11.89,14.47,24.2,28.72,38.4401,40.96c11.4299,9.68,23.74,19.07,38.1499,23.73c-5.23-3.08-11.45-4.46-15.96-8.73
		c-14.47-11.11-27.87-23.53-40.92-36.26C1955.3,224.59,1949.34,217.4,1942.37,211.25z"/>
	<path d="M578.36,263.25c11.49,4.76,21.96,11.97,34.09,15.12c6.25,1.57,13.38,3.09,17.41,8.6c2.41,8.26-1.74,16.7-6.63,23.2
		c-10.76,13.5-25.09,23.88-40.43,31.61c-11.46,5.01-23.05-1.71-33.75-5.48c-1.87,1.13-3.76,2.24-5.69,3.25
		c-2.64-2.1-5.01-4.85-8.33-5.83c-1.6801,0.44-3.27,1.15-4.88,1.79c-2.5-2.35-4.87-4.84-7.29-7.27c-1.28,0.23-2.56,0.49-3.85,0.59
		c-3.01-2.09-3.29-6.46-6.14-8.73c-2.19-1.14-4.46,0.78-6.49,1.41c-2.94-2.25-5.08-5.44-8.39-7.21c-1.37,1.9-2.75,3.8-4.18,5.65
		c-4.03-0.04-7.64-1.84-10.28-4.84c5.86-2.85,11.5-6.52,14.8-12.34c2.52,0.12,5.04,0.38,7.55,0.75c0.93-1.33,1.85-2.67,2.77-4
		c2.77-0.79,5.55-1.57,8.33-2.37c1.76-3.22,3.93-6.57,7.75-7.49c2.32-0.47,3.41-2.35,3.97-4.5c2.86-2.05,6.25-3.06,9.64-3.86
		c0.52-1.74,0.8799-3.54,1.72-5.16c2.13-1.19,4.66-1.28,6.88-2.27c2.06-1.46,3.02-4.01,5.05-5.5c2.95-0.73,6.02-0.24,9.03-0.12
		c1.59-1.18,3.06-2.62,4.94-3.35c2.66,0.09,5.04,1.77,7.71,1.68C575.49,265.91,576.86,264.44,578.36,263.25 M611.18,299.34
		c-11.78,3.76-24.12,5.18-36.31,6.97c-20.61,2.63-41.36,4.01-62.09,5.25c4.05,0.25,8.12,0.16,12.18,0.06
		c23.06-0.87,46.43-0.49,68.98-6.17c10.21-2.53,20.49-5.76,29.33-11.6C619.18,295.54,615.38,297.91,611.18,299.34z"/>
	<path d="M2078.3999,275.53c9.1902-2.82,16.98-8.74,25.8701-12.28c1.46,0.93,2.6899,2.92,4.7,2.41
		c2.9001-0.25,5.77-0.76,8.6899-1.12c1.22,1.28,2.5,2.54,3.8101,3.77c3.6201-0.86,7.8801-1.52,11.04,1.01
		c0.6001,1.19,0.98,2.48,1.46,3.75c2.6599,1.14,5.55,1.64,8.26,2.71c0.95,1.77,1.3301,3.8,2.3999,5.52
		c2.7402,1.29,5.7002,2.09,8.54,3.18c1.1401,2.2,2.28,4.67,4.8801,5.42c3.6399,1.37,6.02,4.51,8.25,7.54
		c2.4399,0.59,5.01,0.96,7.3,2.11c1.51,1.15,2.6799,2.75,4.3699,3.72c1.97,0.02,3.9399-0.32,5.95-0.54
		c4.1702,5.13,9.4202,9.16,15.1301,12.47c-2.5901,2.84-6.04,4.62-9.9102,4.75c-1.5298-1.92-2.6499-4.47-5.0898-5.36
		c-2.6799,1.88-4.7,4.49-7,6.76c-2.21-0.95-4.5-1.69-6.8701-1.93c-1.6699,2.89-2.9299,6.08-5.1399,8.6
		c-1.4001,1.51-3.5,0.34-5.1899,0.26c-1.76,2.01-3.23,4.3-5.26,6.04c-2.3501,1.31-4.9001-0.48-7.1802-1.09
		c-2.3398,1.68-4.4199,3.73-6.9199,5.13c-2.45,1.26-4.72-1.11-6.8-2.03c-7.25,2.52-14.27,5.86-21.8699,7.19
		c-7.02,0.83-13.6902-2.07-19.47-5.75c-9.4702-5.58-18.3701-12.18-26.1101-19.99c-6.1299-6.41-12.21-13.66-13.8501-22.64
		c-0.4399-3.5-1-8.15,2.51-10.31C2061.9199,280.02,2070.4099,278.15,2078.3999,275.53 M2059.47,293.82
		c4.55,3.29,9.79,5.42,15.01,7.42c17.48,6.18,36.0601,8.71,54.52,9.45c13.49,0.18,26.97,1.33,40.47,0.91
		c-21.1799-1.44-42.4099-2.68-63.47-5.55c-11.47-1.67-23.04-3.1-34.1299-6.59C2067.51,298.08,2063.6399,295.62,2059.47,293.82z"/>
	<path d="M2040.1,282.16c-10.59,16.2-22.4299,31.53-34.24,46.86c-9.65,12.39-20.4,24.02-32.76,33.76
		c13-12.71,23.77-27.41,35.09-41.58C2018.63,308.03,2028.92,294.72,2040.1,282.16z"/>
	<path d="M642.82,282.62c24.66,27.34,44.74,58.66,71.45,84.2c-13.66-11.3-26.78-23.43-37.5-37.61
		C665.23,313.84,653.34,298.71,642.82,282.62z"/>
	<path d="M346.92,331.76c5.36-0.17,12.09-0.14,15.53,4.71c0.5,3.21-1.31,6.47-0.66,9.79c4.96-0.15,9.9-0.73,14.86-1.06
		c1.87,2.65,2.47,7.66,6.37,7.83c5-1.46,9.71-4.01,15.04-4.17c0.78,1.69,1.59,3.37,2.52,5c4.73-0.96,9.55-1.51,14.39-1.42
		c0.65,2.17,1.26,4.36,1.97,6.52c5.22,0.77,10.48,1.18,15.74,1.65c0.62,2.4,1.02,4.84,1.39,7.28c6.18,4.14,14.04,3.91,20.34,7.75
		c3.44,1.87,6.98,3.58,10.29,5.69c5.84,3.98,9.79,10.19,12.31,16.69c3.33,8.42,5.62,17.23,7.38,26.11
		c2.95,13.74,4.63,27.88,3.53,41.94c-0.84,9.66-3.51,20.41-12.03,26.17c5.31,6.55,10.79,13.08,17.3,18.5
		c29.39,25.83,65.49,42.96,102.77,54.1c5.99,1.78,12.07,3.16,18.17,4.5c-13.58-0.44-27.18-2.84-40.76-1.2401
		c1.55-0.53,4.64-1.59,6.19-2.12c-2.56,0.31-5.04,1.16-7.61,1.24c-8.63-0.42-17.24-1.2-25.87-1.6c-27.02,0.35-54.02,2.88-80.63,7.64
		c-18.97,3.47-37.86,7.44-56.62,11.89c10.62,11.17,19.17,25.16,20.73,40.78c2.32,18.18-3.54,35.98-9.87,52.76
		c-5.51,14.61-11.88,29.04-14.96,44.42c-1.86,7.8,1.07,15.58,1.47,23.37c-2.15-1.29-4.15-2.92-5.42-5.11
		c-11.77-19.71-20.89-41.24-25.08-63.89c-1.12-7.44-2.58-15.16-0.59-22.58c5.17-23.6801,13.57-46.78,25.55-67.88
		c-17.59,4.32-35.16,8.7-52.79,12.8c22.41-8.24,44.84-16.7,68.17-21.98c24.71-5.39,49.79-9.28,75.05-10.9
		c17.93-1.58,35.96-1.47,53.95-1.65c9.55,0.51,19.09,1.32,28.67,1.44c0.61-0.58,1.23-1.15,1.86-1.71
		c-7.76-2.11-14.71-6.29-21.94-9.66c-29.9-15.46-57.43-36.15-78.65-62.43c-2.88,0.8-5.89,0.72-8.74-0.18
		c-12.41-3.66-23.71-10.31-36.23-13.65c-10.33-2.98-21.25-3.89-31.13-8.33c-0.03-1.6-0.05-3.19-0.05-4.78
		c-3.5-3.55-8.04-5.69-12.18-8.35c0.08-2.19,0.6-4.58-0.6-6.56c-2.31-3.93-7.24-5.27-9.71-9.06c-1.34-2.86,0.4-5.95,1-8.78
		c-2.5-3.16-4.93-6.39-6.76-9.99c1.13-2.3,2.86-4.57,2.81-7.23c-0.67-3.8-3.76-6.5-5.07-10.03c-0.76-2.86,1.22-5.79,0.13-8.61
		c-1.24-3.84-2.78-7.58-4.06-11.4c0.6-1.41,1.21-2.82,1.82-4.22c-1.64-3.25-3.87-6.14-5.6-9.33c-1.44-2.54-0.55-5.49-0.13-8.16
		c-2.97-1.97-6.01-3.84-8.74-6.14C354.05,349.04,351.07,339.82,346.92,331.76 M383.56,369.65c5.78,6.8,12.42,12.79,18.61,19.19
		c19.96,20.48,39.85,41.19,56.91,64.21c4.46,6.01,8.63,12.3,11.56,19.21c1.44,3.66,2.53,7.46,4.29,10.99
		c-1.71-9.96-6.08-19.28-11.29-27.87c-9.2-15.59-21.21-29.3-33.71-42.31C414.93,398.13,399.68,383.4,383.56,369.65z"/>
	<path d="M2324.45,333.49c3.26-2.35,7.5-1.58,11.29-1.73c-4.1499,8.04-7.1499,17.23-4.8101,26.3c-2.71,2.33-5.74,4.21-8.74,6.11
		c0.4001,2.63,1.24,5.53-0.05,8.07c-1.6899,3.24-4.0298,6.11-5.5898,9.42c0.6599,2.13,1.47,4.27,1.55,6.53
		c-0.9602,3.17-2.8,5.98-3.8301,9.13c-1.3601,2.88,1.04,5.98-0.03,8.92c-1.3101,3.12-3.8,5.62-4.8101,8.87
		c-0.77,2.98,1.46,5.59,2.6602,8.14c-1.8701,3.61-4.3401,6.83-6.8,10.04c0.6499,2.85,2.45,6.08,0.8999,8.92
		c-2.5601,2.86-6.47,4.16-8.8499,7.21c-1.8801,2.28-0.4402,5.42-1.3,8.01c-3.75,3.28-8.8101,4.9-11.9399,8.89
		c-0.4702,1.45-0.4202,2.99-0.5701,4.49c-9.3201,4.27-19.6899,5.08-29.45,7.92c-12.1902,3.04-23.23,9.23-35.0801,13.25
		c-2.5801,0.87-5.28,1.34-7.95,1.6c-1.6201-0.56-3.26-0.49-4.8201,0.01c-0.2-1.14-0.3401-2.27-0.4399-3.4l-0.5701,1.16
		c-8.03-7.07-10.22-18.2-10.72-28.4c-0.76-18.26,2.5701-36.46,7.45-54c2.53-8.59,5.4399-17.58,11.8601-24.13
		c3.8499-4.17,9.25-6.26,14.0898-9.01c6.3901-4.01,14.4702-3.67,20.73-8.01c0.29-2.43,0.7002-4.86,1.3901-7.21
		c4.48-0.45,9-0.62,13.46-1.35c3.5601-0.05,3.1499-4.52,4.3901-6.91c4.7998,0.08,9.5898,0.64,14.3398,1.47
		c0.8301-1.61,1.5701-3.26,2.3401-4.91c5.48,0.12,10.3298,2.77,15.46,4.28c4.28,0.33,4.24-4.94,5.46-7.77
		c5.04-0.51,10.05,0.45,15.0701,0.92C2322.76,342.27,2320.1001,336.29,2324.45,333.49 M2275.1499,391.22
		c-21.1799,19.89-42.2898,40.59-57.1199,65.82c-4.3501,8-8.78,16.33-9.9399,25.47c1.5999-3.35,2.5698-6.96,3.98-10.4
		c3.0598-7.17,7.45-13.67,12.1199-19.89c21.95-29.37,48.23-55.09,73.8201-81.22C2290.04,377.34,2282.79,384.51,2275.1499,391.22z"/>
	<path d="M1730.42,420.65c17.35-21.47,34.2699-43.38,48.7999-66.89c-8.09,17.13-18.6899,33.06-31.01,47.45
		C1742.33,407.73,1736.61,414.42,1730.42,420.65z"/>
	<path d="M0,444.79c3.71,0.47,8.09,0.33,10.93,3.17c0.68,2.21,0.69,4.56,1.28,6.8c3.11,0.83,6.33,0.19,9.47-0.04
		c1.32,2.02,2.69,4.01,4.14,5.94c3.97-1.03,7.76-2.74,11.81-3.4c1.01,0.89,1.83,1.96,2.72,2.98c3.48-0.65,7.02-1.06,10.58-0.83
		c0.87,1.59,1.22,3.68,2.72,4.83c3.55,0.52,7.17,0.28,10.72,0.83c0.76,1.98,0.36,4.94,2.57,6.01c4,2.05,8.66,2.25,12.73,4.16
		c4.56,2.2,9.63,4.07,12.77,8.28c9.96,12.02,13.04,27.88,14.88,42.96c1.31,10.65,1.49,22.31-4.19,31.83
		c-1.74,2.87-4.3,6.41-8.19,5.52c-8.06-1.26-15.52-4.83-23.14-7.6c-9.45-3.84-19.64-5.07-29.51-7.36c-0.46-1.5-0.9-3-1.35-4.5
		c-3.06-1.9-6.09-3.87-8.98-6.03c-0.15-1.6201-0.16-3.25-0.55-4.82c-2.39-2.39-5.3-4.17-7.83-6.41c0.15-2.05,0.46-4.11,0.22-6.16
		c-0.64-2.31-2.39-4.07-3.47-6.17c-1.51-2.19,0.89-4.37,1.59-6.4c-1.51-2.87-3.24-5.6-5.03-8.29c1.62-4.75-0.99-9.11-2.93-13.27
		c0.33-1.85,0.99-3.71,0.8-5.6c-1.25-2.58-3.17-4.75-4.8-7.09c-0.02-1.59,0.05-3.19-0.19-4.76c-1.53-1.58-3.46-2.68-5.01-4.21
		c-0.62-2.33-0.45-4.8-0.82-7.17c-0.42-4.38-2.36-8.37-3.94-12.4V444.79 M21.25,467.03c4.15,4.8,9.31,8.54,13.82,12.97
		c6.43,6.2,13.04,12.22,19.24,18.65c12.83,12.92,25.71,25.96,36.2,40.9c3.33,4.49,5.25,9.77,7.64,14.77
		c-4.28-14.48-13.76-26.72-23.44-38.03C58.76,497.95,39.64,482.79,21.25,467.03z"/>
	<path d="M2671.97,447.09c3.22-1.22,6.5901-1.96,10.03-2.38v1.61c-1.9199,5.72-4.46,11.58-3.24,17.75
		c-2.1499,1.8-4.3301,3.53-6.52,5.24c0.55,3.47,0.3301,7.06-2.52,9.49c-3.49,2.69,0.1899,7.3-2.49,10.44
		c-2.3301,3.21-2.4299,7.12-1.3799,10.83c-1.9502,2.74-3.76,5.58-5.3101,8.56c0.99,1.6,1.98,3.2,3.02,4.81
		c-1.6899,2.34-3.6401,4.5-5.03,7.02c-0.55,2.09,0.8401,4.29,0.3301,6.41c-1.9502,2.79-5.29,4.11-7.5801,6.57
		c-0.4099,1.58-0.49,3.21-0.6201,4.84c-2.8799,2.09-5.8499,4.05-8.78,6.0699c-0.5598,1.37-1.0298,2.78-1.6699,4.11
		c-1.53,1.08-3.48,1.3-5.1899,1.81c-13.8101,3.15-27.72,6.27-40.76,11.92c-3.4099,1.66-7.24,1.61-10.8999,1.28
		c-2.5901-3.1-5.3701-6.22-6.5801-10.15c-3.8501-14.23-1.76-29.25,1.3599-43.41c2.4202-10.66,6.77-21.36,14.6902-29.13
		c6.4199-4.77,14.49-6.32,21.78-9.29c2.8398-0.9,2.5398-4.6,4.48-6.33c3.21-1.2,6.74-0.55,10.1199-0.57
		c0.8701-1.72,1.6699-3.48,2.49-5.24c3.6401-0.17,7.29,0.26,10.8701,1.01c0.73-1.18,1.5-2.35,2.3-3.52
		c3.97,1.36,7.9099,3.1,12.1699,3.42c1.54-1.69,2.49-3.81,3.6899-5.76c3.47,0.01,7.3901,1.9,10.6599,0.29
		C2671.8401,452.25,2671.79,449.65,2671.97,447.09 M2601.3101,524c-6.8401,8.84-13.49,18.32-16.3201,29.28
		c4.1201-11.02,11.6201-20.2401,19.4299-28.86c12.4202-13.25,24.6201-26.73,37.8501-39.18c5.78-5.54,12.3301-10.32,17.3401-16.63
		C2639.1001,485.87,2618.23,503.06,2601.3101,524z"/>
	<path d="M2204.1201,494.68c0.3599,0.42,0.74,0.84,1.1499,1.28c-8.8301,9.24-17,19.31-27.3201,27
		C2186.8201,513.7,2196.8899,505.38,2204.1201,494.68z"/>
	<path d="M691.15,569.75c6.15-0.5,12.3-1.14,18.47-1.47c-31.18,5.97-63.58,7.14-94.85,1.11
		C640.2,570.84,665.72,571.47,691.15,569.75z"/>
	<path d="M106.36,571.39c8.84,7.32,17.71,14.69,27.61,20.57c19.5,12.34,41.76,20.04,64.55,23.35c26.37,3.89,53.22,2.37,79.5-1.37
		c22.97-3.45,45.68-8.33,68.29-13.59c-35.9,13.11-72.3,27.37-110.87,29.46c8.06,12.12,11.45,26.81,12.26,41.18
		c0.26,8.95-0.64,18.47-5.48,26.23c-4.13,4.94-9.55,8.55-14.81,12.16c-2.76,1.45-2.24,4.82-2.65,7.42c-3.12,1.06-6.6,1.58-9.19,3.79
		c-0.36,1.44-0.33,2.96-0.53,4.45c-3.24,0.66-6.5,1.25-9.73,1.98c-0.05,0.79-0.14,2.39-0.19,3.18c-3.7,0.09-7.4,0.04-11.1-0.03
		c-0.86,2.05-1.37,4.31-2.7,6.14c-2.21,0.98-4.74,1.01-6.93,2.07c-1.53,1.7,0.01,4.18,0.09,6.16c-1.98,3.1-5.23,4.73-8.71,5.59
		c1.33-5.97,0.44-12.05-1.38-17.8c1.1-1.46,2.42-2.77,3.19-4.44c0.32-1.62-0.39-3.21-0.66-4.78c0.77-2.6,1.57-5.18,2.18-7.81
		c-2.85-3.54-1.87-8.06-1.15-12.13c-0.62-1.36-1.32-2.68-1.69-4.12c0.47-2.69,1.38-5.29,1.92-7.96c-1.16-1.04-2.33-2.07-3.48-3.1
		c1.02-2.74,1.97-5.52,2.38-8.42c-0.77-1.7-2.64-3.48-1.64-5.47c1.07-2.06,2.71-3.74,3.86-5.74c1.34-1.68-0.12-3.7-0.39-5.48
		c2.78-3.11,7.29-6.08,5.97-10.89c6.46-3.55,12.97-7.01,19.27-10.84c5.28-3.28,9.84-7.55,14.75-11.32
		c-19.8-0.95-39-7.21-56.57-16.19C141.47,602.86,122.41,588.53,106.36,571.39 M230.38,631.36c-1.31,13.42-6.03,26.18-11.68,38.33
		c-7.36,16.53-16.92,31.93-25.25,47.95c6.69-9.54,12.79-19.5,18.43-29.69c7.95-15.02,15.55-30.6,18.3-47.53
		C230.58,637.43,231.14,634.34,230.38,631.36z"/>
	<path d="M634.91,583.9c3.35-2.64,7.82-4.41,12.09-3.17c4.83,1.25,8.4,5.18,10.88,9.33c5.12,8.55,6.98,18.5,8.77,28.17
		c1.78,12.48,2.55,25.16,1.46,37.74c-0.75,7.6201-2.62,15.53-7.59,21.57c-4.45,5-9.92,8.9901-15.56,12.54
		c-2.73,1.76-6.13,2.98-7.79,5.96c-0.17,1.97,0.05,3.96-0.12,5.95c-4.19,1.87-8.89,2.5-12.72,5.19c-0.03,1.82-0.08,3.64-0.16,5.48
		c-4.24,0.96-8.69,1.03-12.8,2.4901c-0.49,1.42-0.81,2.9-1.19,4.37c-5.28-0.31-10.59-0.61-15.87-0.05
		c-0.78,2.61,0.43,6.78-2.96,7.77c-3.53,1.37-7.4,1.3-11.0699,2.1c0.41,3.16,1.58,6.41,0.83,9.61c-1.82,3.39-6.02,4.74-9.67,4.61
		c-0.21-4.22,0.65-8.4,0.53-12.61c-0.11-3.4-1.71-6.49-3.14-9.48c1.66-2.7,3.92-4.93,6.33-6.96c-0.72-2.12-2.41-4.14-1.78-6.48
		c0.56-2.84,1.88-5.44,3.02-8.08c-1.58-4.77-2.97-9.78-1.81-14.82c0.96-3.3-2.19-5.91-1.84-9.18c0.58-3.39,2.12-6.5,3.03-9.8
		c-1.1801-1.67-2.61-3.23-3.29-5.1801c-0.13-2.96,1.47-5.64,2.51-8.3199c-0.82-2.55-1.87-5.06-2.19-7.7401
		c0.65-3.98,4.24-6.49,6.08-9.8799c0.41-2.03-0.5-4.01-0.88-5.97c2.65-3.02,5.4-5.94,8.12-8.89c-0.16-2.64-0.47-6.18,2.51-7.41
		c10.56-5.34,21.39-10.29,31.25-16.89C625.35,592.48,629.88,587.87,634.91,583.9 M645.4,604.22c-3.05,10.53-7.72,20.52-12.89,30.17
		c-8.86,16.77-17.74,33.54-27.09,50.05c-4.71,8.32-9.99,16.31-14.62,24.67c6.73-9.72,13.34-19.52,19.97-29.31
		c13.66-22.08,27.18-44.7,34.62-69.76c1.92-6.97,3.36-14.29,2.24-21.52C646.59,593.72,646.96,599.12,645.4,604.22z"/>
	<path d="M2443.3401,636.41c2.1699-3.9,4.1699-8.77,8.76-10.3c4.8499-2.45,9.26,2.13,12.9099,4.82
		c9.6299,8.87,21.46,14.67,32.76,21.07c-1.3701,4.88,3.3401,7.91,6.1899,11.05c-0.3799,0.83-1.1399,2.49-1.52,3.32
		c1.5601,2.94,3.6602,5.57,5.0901,8.59c-0.4299,2.02-1.71,3.83-1.76,5.93c0.3401,2.45,1.3599,4.74,2.21,7.07
		c-1.1899,1.04-2.3699,2.08-3.5,3.14c0.8101,4.05,3.03,8.29,0.24,12.09c0.74,4.09,1.5901,8.52-1.1499,12.1
		c0.5598,2.67,1.3499,5.29,2.1899,7.9c-0.3201,1.56-1.0701,3.12-0.73,4.74c0.8301,1.62,2.0801,2.97,3.23,4.4
		c-1.8501,5.79-2.6699,11.88-1.4199,17.9c-2.55-0.98-5.6301-1.31-7.3201-3.65c-1.75-2.48-1.26-5.81-2.77-8.35
		c-1.9199-1.04-4.1001-1.42-6.1399-1.99c-0.53-1.8-0.8801-3.63-1.6101-5.33c-3.1699-1.33-6.6799-0.24-9.96-0.65
		c-0.9399-0.98-1.55-2.17-2.23-3.27c-3.02-0.76-6.0801-1.33-9.0901-1.96c-0.3699-1.61-0.6399-3.22-1.1299-4.75
		c-2.6802-1.67-5.8201-2.3101-8.7102-3.41c-0.48-2.51,0.2002-5.84-2.3999-7.33c-3.8899-2.7599-7.97-5.27-11.4099-8.6
		c-6.3401-4.92-8.02-13.38-8.9102-20.91C2434.0701,665.14,2436.97,649.91,2443.3401,636.41 M2452.2,631.46
		c-0.74,9.1,2.01,17.99,4.8401,26.52c8.3,23.05,21.45,43.92,34.96,64.23c-9.5901-17.27-19.46-34.4-27.8999-52.27
		C2458.3601,657.75,2453.4099,644.99,2452.2,631.46z"/>
	<path d="M1142.83,666.78c2.77-2.26,4.39-5.58,6.38-8.5c2.11,0.81,4.8,1.06,6.25,3.04c0.86,1.98,0.98,4.18,1.3501,6.3
		c3.8899-1.95,8.0499-3.39,12.45-3.54c-1.03,4.61-2.0601,9.28-2.11,14.04c0.74,3.24,2.63,6.28,2.38,9.72
		c-1.9,2.25-4.54,3.62-6.9501,5.21c0.13,9.48-3.21,18.57-3.2699,28.01c-1.6001,2.4-3.54,4.54-5.7101,6.44
		c1.84,3.15,4.51,5.64,7.4401,7.79c-3.88,5.62-4.26,13.43-9.99,17.73c-7.8601,6.34-18.15,8.41-27.9601,9.38
		c-10.9399,0.78-22.14,0.17-32.6699-3.07c-6.64-2.46-13.05-5.47-19.55-8.25c-1.0699-19.47-0.1801-39.64,7.4301-57.85
		c3.95-8.65,9.4099-17.49,18.2999-21.72c7.79-3.54,16.64-3.36,25-2.94c4.54,0.78,5.52,5.95,6.9,9.58
		c0.89-3.32,1.03-7.45,4.3101-9.4301C1135.88,667.08,1139.6,667.96,1142.83,666.78z"/>
	<path d="M1527.22,661.32c1.42-1.95,4.05-2.22,6.16-3.08c1.89,2.83,3.55,5.9,6.05,8.27c3.4199,1.79,8.0599,0.11,11.1699,2.81
		c2.6801,2.14,2.6901,5.8,3.51,8.84c0.9301-1.61,1.37-3.41,1.67-5.22c1.98-2.03,4.15-4.43,7.25-4.45
		c8.99-0.37,18.8199-0.23,26.5499,5.05c7.17,4.9901,11.76,12.81,15.1901,20.67c7.21,17.98,8.0599,37.73,7.03,56.85
		c-9.49,3.88-18.63,9.11-28.9401,10.46c-13.21,2-26.99,1.72-39.78-2.37c-5.74-2.04-11.6499-4.9901-15.13-10.17
		c-2.38-4.45-3.62-9.42-6.3199-13.7c2.9399-2.19,5.62-4.7401,7.49-7.9301c-2.17-1.86-4.96-3.44-5.84-6.33
		c-0.38-3.2,0.37-6.5-0.78-9.61c-1.89-5.92-1.84-12.15-2.21-18.27c-2.63-1.61-5.1901-3.33-7.51-5.34c0.49-3.38,1.87-6.53,2.73-9.8
		c-0.08-4.71-1.1-9.34-2.11-13.92c4.37,0.2,8.5499,1.58,12.4299,3.56C1526.22,665.52,1526.25,663.28,1527.22,661.32z"/>
	<path d="M1007.24,688.49c2.71-2.52,4.55-5.74,6.23-8.99c4.33,1.73,9.01,1.86,13.5801,2.45c5.4099,2.59,10.11,6.72,12.9199,12.08
		c4.8401,5.27,6.6901,12.33,8.6901,19.02c2,7.19,2.9,14.63,3.76,22.03c0.33,9.87-2.92,19.34-4.1901,29.04
		c-9.38,2.18-18.6799,4.92-28.31,5.72c-14.36,1.27-29.44,1.02-42.82-4.95c-8.0699-3.55-14.54-10.55-17.19-18.99
		c-1.49-4.87-2.8799-9.84-3.36-14.91c0.66-4.04,4.78-5.85,7.89-7.8c-3.12,0.01-6.69,0.97-9.31-1.25c-3.63-2.5-2.33-7.86-5.26-10.82
		c-2.6-2.01-5.91-2.67-9-3.49c0.04-2.23-0.62-4.87,1.07-6.66c1.71-1.53,3.95-2.2599,6-3.23c-2.39-3.42-4.42-7.1-5.55-11.13
		c4.79-0.28,9.68,0.05,14.41-0.96c2.86-1.56,5.55-3.42,8.52-4.81c2.53,1.6,4.41,3.95,6.64,5.9c5.38-0.14,10.69-1.45,16.1-1.18
		c3.45,0.19,6.83-0.44,10.19-1.12C1001.79,683.87,1004.72,686.38,1007.24,688.49z"/>
	<path d="M1655.29,682.06c4.62-0.78,9.4399-0.73,13.88-2.56c1.6699,3.22,3.46,6.46,6.1699,8.95c2.87-2.41,6.53-4.94,10.49-3.74
		c4.9401,1.29,10.0701,0.59,15.1001,1.09c3.3099,0.3,6.61,0.74,9.9399,1.1c1.85-2.33,3.98-4.45,6.53-6.04
		c2.97,1.42,5.6899,3.32,8.6,4.85c4.65,0.89,9.4301,0.66,14.15,0.88c-1.16,4-3.04,7.74-5.41,11.16c1.9,0.9,3.95,1.62,5.65,2.94
		c2.02,1.69,1.2999,4.57,1.4299,6.88c-3.2999,0.9-6.7899,1.69-9.5,3.89c-2.1599,2.58-2.4399,6.13-2.98,9.33
		c-3.39,2.09-7.1899,3.07-11.1599,2.34c3.2,2.14,8.09,4.23,7.85,8.8c-1.37,8.02-3.05,16.42-8.01,23.1
		c-4.37,5.93-11.01,9.8-17.9501,11.98c-12.61,4.04-26.09,3.95-39.1399,2.68c-9.02-0.89-17.7201-3.5-26.5-5.58
		c-1.4701-11.28-5.78-22.54-3.5901-34.02c1.15-10.21,3.4601-20.34,7.5701-29.78c1.37-3.08,3.98-5.37,5.61-8.31
		C1646.4399,687.47,1650.9301,684.52,1655.29,682.06z"/>
	<path d="M1560.03,772.98c18.49-5.34,38.15-4.12,56.96-1.26c2.99,10.6201,7.74,21.03,7.5701,32.26
		c-0.0801,10.72-1.3601,21.47-3.9601,31.86c-3.78,6.84-6.7,14.77-13.7,19.04c-4.73,1.86-9.8201,2.66-14.42,4.88
		c-2.09-2.95-4.29-5.86-7.11-8.15c-2.13,2.02-4.29,4.53-7.36,4.93c-9.25-0.35-18.42,2.01-27.66,0.55
		c-2.0399,2.67-4.1899,5.3799-7.36,6.75c-2.6899-1.13-5.2-2.72-7.99-3.53c-4.79-0.43-9.5699,0.32-14.34,0.44
		c0.6799-4.21,2.49-8.09,4.5399-11.79c-2.0299-0.64-4.21-0.97-6-2.12c-1.6799-1.78-1.45-4.48-1.9299-6.7
		c3.29-1.41,7.01-2.64,9.1899-5.69c1.7201-2.55,1.3101-5.79,1.4401-8.69c3.0699-2.32,6.5599-4.03,10.5-4.13
		c-1.53-0.66-3.0801-1.26-4.62-1.81c-1.53-2.07-4.13-3.92-3.74-6.78c0.58-8.97,1.24-18.74,7.02-26.09
		C1542.79,779.77,1551.5,775.79,1560.03,772.98z"/>
	<path d="M1065.72,771.67c19.64-2.52,40.3301-4.39,59.39,2.28c8.4501,2.9,16.73,7.72,21.61,15.44c4.49,6.99,5.5,15.54,5.89,23.66
		c0.35,2.83-2.24,4.69-3.74,6.74c-1.6,0.59-3.17,1.23-4.72,1.92c3.96,0.03,7.53,1.67,10.62,4.04c0.09,2.94-0.3,6.26,1.51,8.8
		c2.1899,2.97,5.83,4.19,9.1,5.57c-0.49,2.18-0.28,4.74-1.76,6.58c-1.78,1.34-4.12,1.56-6.1801,2.26
		c2.15,3.66,3.63,7.65,4.1901,11.88c-4.8101-0.27-9.67-1.09-14.47-0.42c-2.5801,0.9-4.9401,2.29-7.41,3.42
		c-3.27-1.32-5.45-4.1-7.54-6.78c-9.0699,1.56-18.08-0.89-27.1599-0.49c-3.27-0.18-5.5601-2.86-7.77-4.94
		c-2.79,2.33-5.1,5.15-7.17,8.12c-4.51-2.17-9.48-3-14.12-4.76c-5.48-3.26-8.83-8.89-11.47-14.51
		c-3.42-4.83-3.85-10.85-4.8101-16.49c-1.4099-9.61-2.4099-19.48-0.84-29.12C1060.6,786.99,1063.34,779.37,1065.72,771.67z"/>
</g>
</svg>
